<?xml version="1.0" encoding="utf-8"?>
<!-- Generated by Mocodo 4.2.10 -->
<svg width="989" height="483" viewBox="0 0 989 483" xmlns="http://www.w3.org/2000/svg">
<rect x="0" y="0" width="989" height="483" fill="#f7f7f7" stroke="none" stroke-width="0"/>

<!-- Association IS_INTERESTED_IN -->
<g>
	<line x1="216" y1="68" x2="73" y2="68" stroke="#8073ac" stroke-width="2"/>
	<line x1="73" y1="296" x2="73" y2="68" stroke="#8073ac" stroke-width="2"/>
	<g>
		<path d="M123 43 a14 14 90 0 1 14 14 V68 h-128 V57 a14 14 90 0 1 14 -14" fill="#b2abd2" stroke="#b2abd2" stroke-width="0"/>
		<path d="M137 68 v11 a14 14 90 0 1 -14 14 H23 a14 14 90 0 1 -14 -14 V68 H128" fill="#d8daeb" stroke="#d8daeb" stroke-width="0"/>
		<rect x="9" y="43" width="128" height="50" fill="none" rx="14" stroke="#8073ac" stroke-width="2"/>
		<line x1="9" y1="68" x2="137" y2="68" stroke="#8073ac" stroke-width="1"/>
		<text x="16" y="60.75" fill="#000000" font-family="Verdana" font-size="12">IS INTERESTED IN</text>
	</g>
	<text x="142" y="85" fill="#b35806" font-family="Verdana" font-size="12">0,N</text>
	<text x="78" y="220" fill="#b35806" font-family="Verdana" font-size="12">0,N</text>
</g>

<!-- Association HAVE -->
<g>
	<line x1="216" y1="68" x2="319" y2="68" stroke="#8073ac" stroke-width="2"/>
	<line x1="319" y1="296" x2="319" y2="68" stroke="#8073ac" stroke-width="2"/>
	<line x1="426" y1="68" x2="319" y2="68" stroke="#8073ac" stroke-width="2"/>
	<g>
		<path d="M329 43 a14 14 90 0 1 14 14 V68 h-48 V57 a14 14 90 0 1 14 -14" fill="#b2abd2" stroke="#b2abd2" stroke-width="0"/>
		<path d="M343 68 v11 a14 14 90 0 1 -14 14 H309 a14 14 90 0 1 -14 -14 V68 H48" fill="#d8daeb" stroke="#d8daeb" stroke-width="0"/>
		<rect x="295" y="43" width="48" height="50" fill="none" rx="14" stroke="#8073ac" stroke-width="2"/>
		<line x1="295" y1="68" x2="343" y2="68" stroke="#8073ac" stroke-width="1"/>
		<text x="302" y="60.75" fill="#000000" font-family="Verdana" font-size="12">HAVE</text>
	</g>
	<text x="268" y="85" fill="#b35806" font-family="Verdana" font-size="12">1,1</text>
	<text x="324" y="229" fill="#b35806" font-family="Verdana" font-size="12">1,1</text>
	<text x="362" y="85" fill="#b35806" font-family="Verdana" font-size="12">1,1</text>
</g>

<!-- Association BELONGS_TO_REGION -->
<g>
	<line x1="574" y1="296" x2="574" y2="68" stroke="#8073ac" stroke-width="2"/>
	<line x1="764" y1="68" x2="574" y2="68" stroke="#8073ac" stroke-width="2"/>
	<g>
		<path d="M638 43 a14 14 90 0 1 14 14 V68 h-156 V57 a14 14 90 0 1 14 -14" fill="#b2abd2" stroke="#b2abd2" stroke-width="0"/>
		<path d="M652 68 v11 a14 14 90 0 1 -14 14 H510 a14 14 90 0 1 -14 -14 V68 H156" fill="#d8daeb" stroke="#d8daeb" stroke-width="0"/>
		<rect x="496" y="43" width="156" height="50" fill="none" rx="14" stroke="#8073ac" stroke-width="2"/>
		<line x1="496" y1="68" x2="652" y2="68" stroke="#8073ac" stroke-width="1"/>
		<text x="504" y="60.75" fill="#000000" font-family="Verdana" font-size="12">BELONGS_TO_REGION</text>
	</g>
	<text x="579" y="110" fill="#b35806" font-family="Verdana" font-size="12">1,1</text>
	<text x="693" y="85" fill="#b35806" font-family="Verdana" font-size="12">1,N</text>
</g>

<!-- Association CONTENT -->
<g>
	<line x1="319" y1="296" x2="426" y2="296" stroke="#8073ac" stroke-width="2"/>
	<line x1="426" y1="68" x2="426" y2="296" stroke="#8073ac" stroke-width="2"/>
	<line x1="574" y1="296" x2="426" y2="296" stroke="#8073ac" stroke-width="2"/>
	<g>
		<path d="M449 271 a14 14 90 0 1 14 14 V296 h-74 V285 a14 14 90 0 1 14 -14" fill="#b2abd2" stroke="#b2abd2" stroke-width="0"/>
		<path d="M463 296 v11 a14 14 90 0 1 -14 14 H403 a14 14 90 0 1 -14 -14 V296 H74" fill="#d8daeb" stroke="#d8daeb" stroke-width="0"/>
		<rect x="389" y="271" width="74" height="50" fill="none" rx="14" stroke="#8073ac" stroke-width="2"/>
		<line x1="389" y1="296" x2="463" y2="296" stroke="#8073ac" stroke-width="1"/>
		<text x="397" y="288.75" fill="#000000" font-family="Verdana" font-size="12">CONTENT</text>
	</g>
	<text x="362" y="313" fill="#b35806" font-family="Verdana" font-size="12">0,N</text>
	<text x="431" y="144" fill="#b35806" font-family="Verdana" font-size="12">0,N</text>
	<text x="471" y="313" fill="#b35806" font-family="Verdana" font-size="12">0,N</text>
</g>

<!-- Association PRODUCED_BY_WINERY -->
<g>
	<line x1="574" y1="296" x2="764" y2="296" stroke="#8073ac" stroke-width="2"/>
	<line x1="929" y1="296" x2="764" y2="296" stroke="#8073ac" stroke-width="2"/>
	<g>
		<path d="M832 271 a14 14 90 0 1 14 14 V296 h-164 V285 a14 14 90 0 1 14 -14" fill="#b2abd2" stroke="#b2abd2" stroke-width="0"/>
		<path d="M846 296 v11 a14 14 90 0 1 -14 14 H696 a14 14 90 0 1 -14 -14 V296 H164" fill="#d8daeb" stroke="#d8daeb" stroke-width="0"/>
		<rect x="682" y="271" width="164" height="50" fill="none" rx="14" stroke="#8073ac" stroke-width="2"/>
		<line x1="682" y1="296" x2="846" y2="296" stroke="#8073ac" stroke-width="1"/>
		<text x="690" y="288.75" fill="#000000" font-family="Verdana" font-size="12">PRODUCED_BY_WINERY</text>
	</g>
	<text x="655" y="313" fill="#b35806" font-family="Verdana" font-size="12">1,1</text>
	<text x="851" y="313" fill="#b35806" font-family="Verdana" font-size="12">1,N</text>
</g>

<!-- Entity CLIENTS -->
<g>
	<g>
		<rect x="169" y="9" width="94" height="25" fill="#fdb863" stroke="none" stroke-width="0" opacity="1"/>
		<rect x="169" y="34" width="94" height="93" fill="#fee0b6" stroke="none" stroke-width="0" opacity="1"/>
		<rect x="169" y="9" width="94" height="118" fill="none" stroke="#e08214" stroke-width="2" opacity="1"/>
		<line x1="169" y1="34" x2="263" y2="34" stroke="#e08214" stroke-width="1"/>
	</g>
	<text x="190" y="26.75" fill="#000000" font-family="Verdana" font-size="12">CLIENTS</text>
	<text x="174" y="51.8" fill="#000000" font-family="Verdana" font-size="12">ClientID</text>
	<line x1="174" y1="54" x2="224" y2="54" stroke="#000000" stroke-width="1"/>
	<text x="174" y="68.8" fill="#000000" font-family="Verdana" font-size="12">Name</text>
	<text x="174" y="85.8" fill="#000000" font-family="Verdana" font-size="12">Surname</text>
	<text x="174" y="102.8" fill="#000000" font-family="Verdana" font-size="12">Email</text>
	<text x="174" y="119.8" fill="#000000" font-family="Verdana" font-size="12">postal_adress</text>
</g>

<!-- Entity GRENIER -->
<g>
	<g>
		<rect x="388" y="9" width="76" height="25" fill="#fdb863" stroke="none" stroke-width="0" opacity="1"/>
		<rect x="388" y="34" width="76" height="93" fill="#fee0b6" stroke="none" stroke-width="0" opacity="1"/>
		<rect x="388" y="9" width="76" height="118" fill="none" stroke="#e08214" stroke-width="2" opacity="1"/>
		<line x1="388" y1="34" x2="464" y2="34" stroke="#e08214" stroke-width="1"/>
	</g>
	<text x="398" y="26.75" fill="#000000" font-family="Verdana" font-size="12">GRENIER</text>
	<text x="393" y="51.8" fill="#000000" font-family="Verdana" font-size="12">GrenierID</text>
	<line x1="393" y1="54" x2="453" y2="54" stroke="#000000" stroke-width="1"/>
	<text x="393" y="68.8" fill="#000000" font-family="Verdana" font-size="12">WineID</text>
	<text x="393" y="85.8" fill="#000000" font-family="Verdana" font-size="12">ClientID</text>
	<text x="393" y="102.8" fill="#000000" font-family="Verdana" font-size="12">AddedOn</text>
	<text x="393" y="119.8" fill="#000000" font-family="Verdana" font-size="12">WineSheet</text>
</g>

<!-- Entity REGION -->
<g>
	<g>
		<rect x="720" y="26" width="88" height="25" fill="#fdb863" stroke="none" stroke-width="0" opacity="1"/>
		<rect x="720" y="51" width="88" height="59" fill="#fee0b6" stroke="none" stroke-width="0" opacity="1"/>
		<rect x="720" y="26" width="88" height="84" fill="none" stroke="#e08214" stroke-width="2" opacity="1"/>
		<line x1="720" y1="51" x2="808" y2="51" stroke="#e08214" stroke-width="1"/>
	</g>
	<text x="739" y="43.75" fill="#000000" font-family="Verdana" font-size="12">REGION</text>
	<text x="725" y="68.8" fill="#000000" font-family="Verdana" font-size="12">RegionID</text>
	<line x1="725" y1="71" x2="781" y2="71" stroke="#000000" stroke-width="1"/>
	<text x="725" y="85.8" fill="#000000" font-family="Verdana" font-size="12">RegionName</text>
	<text x="725" y="102.8" fill="#000000" font-family="Verdana" font-size="12">Country</text>
</g>

<!-- Entity EVENEMENTS -->
<g>
	<g>
		<rect x="26" y="228" width="94" height="25" fill="#fdb863" stroke="none" stroke-width="0" opacity="1"/>
		<rect x="26" y="253" width="94" height="111" fill="#fee0b6" stroke="none" stroke-width="0" opacity="1"/>
		<rect x="26" y="228" width="94" height="136" fill="none" stroke="#e08214" stroke-width="2" opacity="1"/>
		<line x1="26" y1="253" x2="120" y2="253" stroke="#e08214" stroke-width="1"/>
	</g>
	<text x="32" y="245.75" fill="#000000" font-family="Verdana" font-size="12">EVENEMENTS</text>
	<text x="31" y="270.8" fill="#000000" font-family="Verdana" font-size="12">EvenementID</text>
	<line x1="31" y1="273" x2="114" y2="273" stroke="#000000" stroke-width="1"/>
	<text x="31" y="287.8" fill="#000000" font-family="Verdana" font-size="12">Date</text>
	<text x="31" y="304.8" fill="#000000" font-family="Verdana" font-size="12">Location</text>
	<text x="31" y="321.8" fill="#000000" font-family="Verdana" font-size="12">Time</text>
	<text x="31" y="338.8" fill="#000000" font-family="Verdana" font-size="12">Price</text>
	<text x="31" y="355.8" fill="#000000" font-family="Verdana" font-size="12">Contact</text>
</g>

<!-- Entity CAVE -->
<g>
	<g>
		<rect x="281" y="237" width="76" height="25" fill="#fdb863" stroke="none" stroke-width="0" opacity="1"/>
		<rect x="281" y="262" width="76" height="93" fill="#fee0b6" stroke="none" stroke-width="0" opacity="1"/>
		<rect x="281" y="237" width="76" height="118" fill="none" stroke="#e08214" stroke-width="2" opacity="1"/>
		<line x1="281" y1="262" x2="357" y2="262" stroke="#e08214" stroke-width="1"/>
	</g>
	<text x="303" y="254.75" fill="#000000" font-family="Verdana" font-size="12">CAVE</text>
	<text x="286" y="279.8" fill="#000000" font-family="Verdana" font-size="12">CaveID</text>
	<line x1="286" y1="282" x2="331" y2="282" stroke="#000000" stroke-width="1"/>
	<text x="286" y="296.8" fill="#000000" font-family="Verdana" font-size="12">WineID</text>
	<text x="286" y="313.8" fill="#000000" font-family="Verdana" font-size="12">ClientID</text>
	<text x="286" y="330.8" fill="#000000" font-family="Verdana" font-size="12">AddedOn</text>
	<text x="286" y="347.8" fill="#000000" font-family="Verdana" font-size="12">WineSheet</text>
</g>

<!-- Entity WINES -->
<g>
	<g>
		<rect x="498" y="118" width="152" height="25" fill="#fdb863" stroke="none" stroke-width="0" opacity="1"/>
		<rect x="498" y="143" width="152" height="331" fill="#fee0b6" stroke="none" stroke-width="0" opacity="1"/>
		<rect x="498" y="118" width="152" height="356" fill="none" stroke="#e08214" stroke-width="2" opacity="1"/>
		<line x1="498" y1="143" x2="650" y2="143" stroke="#e08214" stroke-width="1"/>
	</g>
	<text x="553" y="135.75" fill="#000000" font-family="Verdana" font-size="12">WINES</text>
	<text x="503" y="160.8" fill="#000000" font-family="Verdana" font-size="12">WineID</text>
	<line x1="503" y1="163" x2="548" y2="163" stroke="#000000" stroke-width="1"/>
	<text x="503" y="177.8" fill="#000000" font-family="Verdana" font-size="12">Type</text>
	<text x="503" y="194.8" fill="#000000" font-family="Verdana" font-size="12">Elaborate</text>
	<text x="503" y="211.8" fill="#000000" font-family="Verdana" font-size="12">Grapes</text>
	<text x="503" y="228.8" fill="#000000" font-family="Verdana" font-size="12">Harmonize</text>
	<text x="503" y="245.8" fill="#000000" font-family="Verdana" font-size="12">ABV</text>
	<text x="503" y="262.8" fill="#000000" font-family="Verdana" font-size="12">Body</text>
	<text x="503" y="279.8" fill="#000000" font-family="Verdana" font-size="12">Acidity</text>
	<text x="503" y="296.8" fill="#000000" font-family="Verdana" font-size="12">RegionID</text>
	<text x="503" y="313.8" fill="#000000" font-family="Verdana" font-size="12">RegionName</text>
	<text x="503" y="330.8" fill="#000000" font-family="Verdana" font-size="12">WineryID</text>
	<text x="503" y="347.8" fill="#000000" font-family="Verdana" font-size="12">WineryName</text>
	<text x="503" y="364.8" fill="#000000" font-family="Verdana" font-size="12">WineryWebsite</text>
	<text x="503" y="381.8" fill="#000000" font-family="Verdana" font-size="12">Vintages</text>
	<text x="503" y="398.8" fill="#000000" font-family="Verdana" font-size="12">NameWine_withWinery</text>
	<text x="503" y="415.8" fill="#000000" font-family="Verdana" font-size="12">AverageRating</text>
	<text x="503" y="432.8" fill="#000000" font-family="Verdana" font-size="12">Ratings</text>
	<text x="503" y="449.8" fill="#000000" font-family="Verdana" font-size="12">Price</text>
	<text x="503" y="466.8" fill="#000000" font-family="Verdana" font-size="12">FlavorGroup</text>
</g>

<!-- Entity WINERY -->
<g>
	<g>
		<rect x="878" y="254" width="102" height="25" fill="#fdb863" stroke="none" stroke-width="0" opacity="1"/>
		<rect x="878" y="279" width="102" height="59" fill="#fee0b6" stroke="none" stroke-width="0" opacity="1"/>
		<rect x="878" y="254" width="102" height="84" fill="none" stroke="#e08214" stroke-width="2" opacity="1"/>
		<line x1="878" y1="279" x2="980" y2="279" stroke="#e08214" stroke-width="1"/>
	</g>
	<text x="904" y="271.75" fill="#000000" font-family="Verdana" font-size="12">WINERY</text>
	<text x="883" y="296.8" fill="#000000" font-family="Verdana" font-size="12">WineryID</text>
	<line x1="883" y1="299" x2="940" y2="299" stroke="#000000" stroke-width="1"/>
	<text x="883" y="313.8" fill="#000000" font-family="Verdana" font-size="12">WineryName</text>
	<text x="883" y="330.8" fill="#000000" font-family="Verdana" font-size="12">WineryWebsite</text>
</g>
</svg>